<svg width="187" height="40" viewBox="0 0 187 40" fill="none" xmlns="http://www.w3.org/2000/svg">
<path d="M50.52 34V6H56.32V34H50.52ZM61.0584 34V13.16H66.5384V14.88C68.1118 13.4667 70.0584 12.76 72.3784 12.76C74.0051 12.76 75.4318 13.12 76.6584 13.84C77.9118 14.5333 78.8851 15.5067 79.5784 16.76C80.2718 17.9867 80.6184 19.4267 80.6184 21.08V34H75.1384V21.88C75.1384 20.52 74.7518 19.4533 73.9784 18.68C73.2051 17.88 72.1518 17.48 70.8184 17.48C69.8851 17.48 69.0584 17.6667 68.3384 18.04C67.6184 18.3867 67.0184 18.8933 66.5384 19.56V34H61.0584ZM92.5694 34.4C90.6494 34.4 88.876 34.16 87.2494 33.68C85.6227 33.1733 84.2094 32.4533 83.0094 31.52L85.7294 27.88C86.9294 28.68 88.076 29.28 89.1694 29.68C90.2894 30.08 91.396 30.28 92.4894 30.28C93.716 30.28 94.6894 30.08 95.4094 29.68C96.156 29.2533 96.5294 28.7067 96.5294 28.04C96.5294 27.5067 96.316 27.08 95.8894 26.76C95.4894 26.44 94.836 26.2133 93.9294 26.08L89.9294 25.48C87.8494 25.16 86.276 24.4933 85.2094 23.48C84.1427 22.44 83.6094 21.08 83.6094 19.4C83.6094 18.04 83.956 16.88 84.6494 15.92C85.3694 14.9333 86.3694 14.1733 87.6494 13.64C88.956 13.08 90.5027 12.8 92.2894 12.8C93.8094 12.8 95.2894 13.0133 96.7294 13.44C98.196 13.8667 99.5694 14.52 100.849 15.4L98.2094 18.96C97.0627 18.24 95.9694 17.72 94.9294 17.4C93.8894 17.08 92.836 16.92 91.7694 16.92C90.7827 16.92 89.9827 17.1067 89.3694 17.48C88.7827 17.8533 88.4894 18.3467 88.4894 18.96C88.4894 19.52 88.7027 19.96 89.1294 20.28C89.556 20.6 90.2894 20.8267 91.3294 20.96L95.3294 21.56C97.3827 21.8533 98.956 22.52 100.049 23.56C101.143 24.5733 101.689 25.8933 101.689 27.52C101.689 28.8533 101.289 30.04 100.489 31.08C99.6894 32.0933 98.6094 32.9067 97.2494 33.52C95.8894 34.1067 94.3294 34.4 92.5694 34.4ZM112.498 34.4C110.898 34.4 109.471 34.0533 108.218 33.36C106.991 32.64 106.018 31.6533 105.298 30.4C104.604 29.1467 104.258 27.7067 104.258 26.08V13.16H109.738V25.28C109.738 26.6133 110.124 27.68 110.898 28.48C111.698 29.28 112.764 29.68 114.098 29.68C115.004 29.68 115.818 29.5067 116.538 29.16C117.284 28.7867 117.898 28.2667 118.378 27.6V13.16H123.858V34H118.378V32.32C116.778 33.7067 114.818 34.4 112.498 34.4ZM128.129 34V13.16H133.609V15.48C134.275 14.5733 135.075 13.88 136.009 13.4C136.942 12.92 137.995 12.68 139.169 12.68C140.182 12.7067 140.942 12.8667 141.449 13.16V17.96C141.049 17.7733 140.609 17.64 140.129 17.56C139.649 17.4533 139.155 17.4 138.649 17.4C137.582 17.4 136.609 17.6667 135.729 18.2C134.849 18.7333 134.142 19.4933 133.609 20.48V34H128.129ZM150.511 34.36C149.018 34.36 147.698 34.0933 146.551 33.56C145.404 33 144.511 32.24 143.871 31.28C143.231 30.32 142.911 29.2133 142.911 27.96C142.911 25.96 143.658 24.4133 145.151 23.32C146.671 22.2 148.751 21.64 151.391 21.64C153.204 21.64 154.911 21.92 156.511 22.48V20.96C156.511 19.76 156.138 18.8533 155.391 18.24C154.644 17.6267 153.551 17.32 152.111 17.32C151.231 17.32 150.284 17.4667 149.271 17.76C148.258 18.0267 147.084 18.4533 145.751 19.04L143.751 15C145.404 14.2533 146.978 13.6933 148.471 13.32C149.991 12.9467 151.511 12.76 153.031 12.76C155.831 12.76 158.004 13.44 159.551 14.8C161.124 16.1333 161.911 18.0267 161.911 20.48V34H156.511V32.52C155.658 33.16 154.738 33.6267 153.751 33.92C152.764 34.2133 151.684 34.36 150.511 34.36ZM148.111 27.84C148.111 28.64 148.458 29.28 149.151 29.76C149.844 30.2133 150.764 30.44 151.911 30.44C152.818 30.44 153.658 30.3333 154.431 30.12C155.204 29.88 155.898 29.5333 156.511 29.08V26.04C155.844 25.7733 155.151 25.5733 154.431 25.44C153.711 25.3067 152.938 25.24 152.111 25.24C150.858 25.24 149.871 25.48 149.151 25.96C148.458 26.4133 148.111 27.04 148.111 27.84ZM163.818 34L171.818 23.4L164.018 13.16H170.378L174.978 19.36L179.538 13.16H185.698L178.018 23.32L186.178 34H179.778L174.858 27.36L169.938 34H163.818Z" fill="#121212"/>
<path d="M19.0002 1.98866C19.2347 1.98866 19.4686 1.99279 19.7017 2.00097V0.677409C19.7017 0.303262 19.3876 0 19.0002 0C18.6128 0 18.2987 0.30331 18.2987 0.677409V2.00097C18.5318 1.99279 18.7657 1.98866 19.0002 1.98866Z" fill="#DD3333"/>
<path d="M6.79355 17.7043C9.47108 17.7043 11.7868 18.6658 12.8969 20.0635C14.0069 18.6658 16.3228 17.7043 19.0002 17.7043C21.6778 17.7043 23.9936 18.6658 25.1036 20.0635C26.2136 18.6658 28.5295 17.7043 31.2069 17.7043C33.9688 17.7043 36.3462 18.7273 37.412 20.1968C37.4098 10.3795 29.1675 2.42163 19.0002 2.42163C8.83301 2.42163 0.590642 10.3795 0.588501 20.1968C1.65427 18.7273 4.03165 17.7043 6.79355 17.7043Z" fill="#DD3333"/>
<path d="M23.4948 27.5618C23.9007 27.5618 24.2865 27.4787 24.635 27.3293H26.3095V24.82H26.3092C26.2959 23.3299 25.0411 22.1259 23.4949 22.1259C21.9485 22.1259 20.6937 23.3299 20.6804 24.82H20.6801V27.3293H22.3545C22.7031 27.4787 23.0889 27.5618 23.4948 27.5618Z" fill="#121212"/>
<path d="M9.67409 35.7916V31.8809C9.67409 31.7576 9.7733 31.6526 9.90094 31.6482C10.0343 31.6439 10.1439 31.7472 10.1439 31.8748V36.0709C10.1642 36.0825 10.1844 36.0943 10.2046 36.1059C10.35 36.1886 10.4987 36.2703 10.6468 36.3487C11.8902 37.0089 13.2122 37.5182 14.5803 37.8646V37.2099C14.5803 36.1885 15.3533 35.3417 16.365 35.1844C16.4759 35.1671 16.5895 35.1581 16.7052 35.1581H17.638C17.7163 35.1581 17.7934 35.174 17.8655 35.2034C17.8658 35.2034 17.8661 35.2037 17.8664 35.2037C18.2262 35.3506 18.6076 35.4251 19.0001 35.4251C19.3925 35.4251 19.7739 35.3506 20.1338 35.2037C20.1341 35.2037 20.1344 35.2034 20.1347 35.2034C20.2067 35.174 20.2838 35.1581 20.3621 35.1581H21.295C21.4107 35.1581 21.5242 35.1671 21.6351 35.1844C22.6469 35.3417 23.4198 36.1885 23.4198 37.2099V37.8646C24.6167 37.5614 25.7809 37.1328 26.8841 36.589C26.9638 36.5499 27.0424 36.5102 27.12 36.4703L26.4004 33.414C26.3741 33.302 26.4467 33.1903 26.563 33.1646C26.6793 33.1392 26.7946 33.2093 26.8212 33.3216L27.5135 36.2623C28.2825 35.8438 29.0227 35.3661 29.7179 34.8389C29.8596 34.7315 29.999 34.6221 30.1366 34.5111L29.4341 31.0435C29.1604 29.6925 27.9343 28.7175 26.5086 28.7175H25.5686C25.4493 28.7175 25.3319 28.7415 25.2221 28.7865C25.2218 28.7868 25.2212 28.7868 25.2206 28.7871C24.6731 29.0107 24.0923 29.1242 23.4948 29.1242C22.8971 29.1242 22.3163 29.0107 21.7687 28.7871C21.7684 28.7868 21.7678 28.7868 21.7672 28.7865C21.6575 28.7415 21.5401 28.7175 21.4211 28.7175H20.4808C20.3776 28.7175 20.2758 28.7233 20.175 28.7334C19.7327 28.4165 19.2111 28.1974 18.6438 28.1094C18.4602 28.0809 18.2719 28.0659 18.0804 28.0659H16.5339C16.4042 28.0659 16.2763 28.0918 16.157 28.1406C16.1564 28.1409 16.1558 28.1412 16.1552 28.1415C15.5592 28.3847 14.9271 28.5083 14.2763 28.5083C13.6257 28.5083 12.9935 28.3847 12.3975 28.1415C12.3969 28.1412 12.3963 28.1409 12.3957 28.1406C12.2765 28.0918 12.1485 28.0659 12.0188 28.0659H10.4723C10.2807 28.0659 10.0924 28.0809 9.90891 28.1094C8.23151 28.3698 6.95044 29.7736 6.95044 31.4667V33.7189C7.17256 33.9257 7.40085 34.1274 7.63537 34.3236C8.27563 34.8591 8.95932 35.3513 9.67409 35.7916ZM19.0002 30.8287C20.0212 30.8287 20.8488 31.6279 20.8488 32.6138C20.8488 33.5997 20.0212 34.399 19.0002 34.399C17.9792 34.399 17.1515 33.5997 17.1515 32.6138C17.1515 31.6279 17.9792 30.8287 19.0002 30.8287Z" fill="#121212"/>
<path d="M16.3604 37.3196C16.2836 37.3219 16.2234 37.3854 16.2234 37.4599V38.1993C16.2757 38.2075 16.3279 38.2155 16.3802 38.2231C16.4216 38.2292 16.4637 38.2352 16.5071 38.2412V37.4564C16.5071 37.379 16.4408 37.317 16.3604 37.3196Z" fill="#DD3333"/>
<path d="M21.6301 37.3196C21.5533 37.3219 21.4932 37.3854 21.4932 37.4599V38.2412C21.5366 38.2352 21.5786 38.2292 21.6198 38.2232C21.6722 38.2155 21.7246 38.2075 21.7769 38.1993V37.4564C21.7769 37.379 21.7106 37.317 21.6301 37.3196Z" fill="#DD3333"/>
<path d="M14.7636 26.7673C16.4344 26.508 17.5711 24.9898 17.3026 23.3764C17.034 21.763 15.4618 20.6652 13.791 20.9246C12.1202 21.1839 10.9834 22.7021 11.252 24.3155C11.5206 25.929 13.0927 27.0267 14.7636 26.7673Z" fill="#121212"/>
<path d="M19.0002 40C18.9581 40 18.9163 40 18.8745 39.9997C18.824 39.9994 18.7729 39.9988 18.7218 39.9979C17.9584 39.9876 17.1855 39.9322 16.427 39.8331C16.3222 39.8194 16.2264 39.8061 16.1337 39.7925C15.5619 39.7088 14.9911 39.5994 14.4372 39.4673C12.8411 39.0879 11.2997 38.5068 9.85597 37.7402C9.69367 37.6543 9.53012 37.5645 9.37055 37.4736C8.37709 36.9091 7.43109 36.2529 6.5591 35.5233C4.54623 33.8394 2.88895 31.7223 1.7665 29.4007C0.674829 27.1429 0.0816817 24.7369 0.000304387 22.2403C-0.0103534 21.9141 0.260224 21.6437 0.598184 21.6437C0.91936 21.6437 1.18506 21.8886 1.19542 22.1986C1.35503 26.9871 3.57508 31.4996 7.34199 34.6507C8.15925 35.3345 9.04584 35.9496 9.97729 36.4789C10.1266 36.5639 10.2792 36.6477 10.4313 36.7282C11.7843 37.4466 13.2281 37.991 14.7233 38.3464C15.2423 38.4702 15.777 38.5726 16.313 38.6511C16.3995 38.6638 16.4892 38.6762 16.5874 38.6891C17.2982 38.7819 18.0228 38.8339 18.7409 38.8435C18.7899 38.8444 18.8362 38.8449 18.8825 38.8452C18.922 38.8455 18.961 38.8455 19.0001 38.8455C19.8066 38.8455 20.6184 38.7929 21.413 38.689C21.511 38.6762 21.6008 38.6638 21.6871 38.6511C22.2232 38.5727 22.7579 38.4702 23.2765 38.3465C24.5949 38.033 25.8771 37.5714 27.088 36.9745C27.2175 36.9109 27.3455 36.8458 27.469 36.7808C28.3526 36.3191 29.2019 35.7806 29.9948 35.1794C34.1768 32.0074 36.6378 27.3021 36.805 22.2005C36.8152 21.8898 37.0801 21.6436 37.402 21.6436C37.7406 21.6436 38.0106 21.9149 37.9997 22.2418C37.9584 23.4783 37.7894 24.7064 37.4957 25.9006C37.1642 27.2487 36.6719 28.562 36.0325 29.8041C34.7818 32.2337 32.9494 34.4064 30.7332 36.0873C29.8871 36.7288 28.9809 37.3035 28.0394 37.7954C27.9076 37.8647 27.7697 37.9348 27.6309 38.0031C26.3389 38.64 24.9699 39.1328 23.5627 39.4674C23.0092 39.5994 22.4383 39.7088 21.8664 39.7925C21.7739 39.806 21.678 39.8193 21.5735 39.833C20.7258 39.9439 19.8601 40 19.0002 40Z" fill="#DD3333"/>
</svg>
